# xmcd
#
# Track frame offsets: 
#        150
#        11355
#        28845
#        45419
#        60158
#        72295
#        89293
#        110125
#        122651
#        134007
#        145064
#        160418
#        189929
#        204756
#        219636
#        234265
#        246324
#        256956
#        266965
#        279595
#        292159
#        304372
#
# Disc length: 4213 seconds
#
# Revision: 2
# Processed by: cddbd v1.5.2PL0 Copyright (c) Steve Scherf et al.
# Submitted via: ExactAudioCopyFreeDBPlugin 1.0
#
DISCID=4b107316
DTITLE=Bettye LaVette - Child of the Seventies
DYEAR=2006
DGENRE=Soul
TTITLE0=It Ain't Easy
TTITLE1=If I Can't Be Your Woman
TTITLE2=Fortune Teller
TTITLE3=Your Turn to Cry
TTITLE4=Soul Tambourine
TTITLE5=All the Black and White Children
TTITLE6=Our Own Love Song
TTITLE7=Ain't Nothing Gonna Change Me
TTITLE8=Outside Woman
TTITLE9=The Stealer
TTITLE10=My Love is Showing
TTITLE11=Souvenirs
TTITLE12=Waiting for Tomorrow (bonus track)
TTITLE13=Livin' Life on a Shoestring (bonus track)
TTITLE14=Your Turn to Cry (mono single version) (bonus track)
TTITLE15=Soul Tambourine (mono single version) (bonus track)
TTITLE16=Heart of Gold (bonus track)
TTITLE17=You'll Wake Up Wiser (bonus track)
TTITLE18=Here I Am (bonus track)
TTITLE19=You'll Never Change (bonus track)
TTITLE20=My Man - He's a Lovin' Man (bonus track)
TTITLE21=Shut Your Mouth (bonus track)
EXTD=
EXTT0=
EXTT1=
EXTT2=
EXTT3=
EXTT4=
EXTT5=
EXTT6=
EXTT7=
EXTT8=
EXTT9=
EXTT10=
EXTT11=
EXTT12=
EXTT13=
EXTT14=
EXTT15=
EXTT16=
EXTT17=
EXTT18=
EXTT19=
EXTT20=
EXTT21=
PLAYORDER=
